solid Cap_RCA_RPDA1
  facet normal 0.535092 0.771863 -0.343372
    outer loop
       vertex -0.153684 0.0350038 0.999514
       vertex -0.153963 0.0353062 0.999759
       vertex -0.153625 0.0350065 0.999612
    endloop
  endfacet
  facet normal 0.535092 0.771863 -0.343371
    outer loop
       vertex -0.153717 0.0350031 0.999461
       vertex -0.153963 0.0353062 0.999759
       vertex -0.153684 0.0350038 0.999514
    endloop
  endfacet
  facet normal 0.528332 0.773337 -0.350451
    outer loop
       vertex -0.153729 0.0350045 0.999446
       vertex -0.153963 0.0353062 0.999759
       vertex -0.153717 0.0350031 0.999461
    endloop
  endfacet
  facet normal 0.533202 0.772148 -0.345664
    outer loop
       vertex -0.15378 0.035016 0.999393
       vertex -0.153963 0.0353062 0.999759
       vertex -0.153729 0.0350045 0.999446
    endloop
  endfacet
  facet normal 0.533861 0.77192 -0.345154
    outer loop
       vertex -0.153875 0.0350361 0.999291
       vertex -0.153963 0.0353062 0.999759
       vertex -0.15378 0.035016 0.999393
    endloop
  endfacet
  facet normal 0.538016 0.769901 -0.343207
    outer loop
       vertex -0.153917 0.0350543 0.999266
       vertex -0.153963 0.0353062 0.999759
       vertex -0.153875 0.0350361 0.999291
    endloop
  endfacet
  facet normal 0.537453 0.770202 -0.343413
    outer loop
       vertex -0.154014 0.0350948 0.999205
       vertex -0.153963 0.0353062 0.999759
       vertex -0.153917 0.0350543 0.999266
    endloop
  endfacet
  facet normal 0.532295 0.773438 -0.344173
    outer loop
       vertex -0.154072 0.0351298 0.999194
       vertex -0.153963 0.0353062 0.999759
       vertex -0.154014 0.0350948 0.999205
    endloop
  endfacet
  facet normal 0.537073 0.770172 -0.344075
    outer loop
       vertex -0.154144 0.0351818 0.999198
       vertex -0.153963 0.0353062 0.999759
       vertex -0.154072 0.0351298 0.999194
    endloop
  endfacet
  facet normal 0.529057 0.776249 -0.342836
    outer loop
       vertex -0.154189 0.0352191 0.999213
       vertex -0.153963 0.0353062 0.999759
       vertex -0.154144 0.0351818 0.999198
    endloop
  endfacet
  facet normal 0.536729 0.769991 -0.345014
    outer loop
       vertex -0.154229 0.035264 0.999251
       vertex -0.153963 0.0353062 0.999759
       vertex -0.154189 0.0352191 0.999213
    endloop
  endfacet
  facet normal 0.535458 0.771131 -0.344443
    outer loop
       vertex -0.154293 0.0353339 0.999308
       vertex -0.153963 0.0353062 0.999759
       vertex -0.154229 0.035264 0.999251
    endloop
  endfacet
  facet normal 0.534322 0.772321 -0.343539
    outer loop
       vertex -0.154338 0.0354082 0.999405
       vertex -0.153963 0.0353062 0.999759
       vertex -0.154293 0.0353339 0.999308
    endloop
  endfacet
  facet normal 0.534512 0.772068 -0.343813
    outer loop
       vertex -0.154357 0.0354525 0.999475
       vertex -0.153963 0.0353062 0.999759
       vertex -0.154338 0.0354082 0.999405
    endloop
  endfacet
  facet normal 0.535033 0.77118 -0.344994
    outer loop
       vertex -0.154368 0.0355107 0.999588
       vertex -0.153963 0.0353062 0.999759
       vertex -0.154357 0.0354525 0.999475
    endloop
  endfacet
  facet normal 0.535173 0.770653 -0.345954
    outer loop
       vertex -0.154365 0.0355315 0.999639
       vertex -0.153963 0.0353062 0.999759
       vertex -0.154368 0.0355107 0.999588
    endloop
  endfacet
  facet normal 0.53494 0.773694 -0.339465
    outer loop
       vertex -0.154356 0.0355595 0.999717
       vertex -0.153963 0.0353062 0.999759
       vertex -0.154365 0.0355315 0.999639
    endloop
  endfacet
  facet normal 0.53417 0.771467 -0.34569
    outer loop
       vertex -0.154311 0.0355875 0.999849
       vertex -0.153963 0.0353062 0.999759
       vertex -0.154356 0.0355595 0.999717
    endloop
  endfacet
  facet normal -0.250448 -0 -0.96813
    outer loop
       vertex -0.154311 0.0355876 0.999849
       vertex -0.153963 0.0353062 0.999759
       vertex -0.154311 0.0355875 0.999849
    endloop
  endfacet
  facet normal 0.53298 0.77079 -0.349021
    outer loop
       vertex -0.154238 0.0356055 1
       vertex -0.153963 0.0353062 0.999759
       vertex -0.154311 0.0355876 0.999849
    endloop
  endfacet
  facet normal 0.517968 0.772226 -0.367934
    outer loop
       vertex -0.154222 0.0356043 1.00002
       vertex -0.153963 0.0353062 0.999759
       vertex -0.154238 0.0356055 1
    endloop
  endfacet
  facet normal 0.550947 0.766898 -0.329128
    outer loop
       vertex -0.154156 0.0355955 1.00011
       vertex -0.153963 0.0353062 0.999759
       vertex -0.154222 0.0356043 1.00002
    endloop
  endfacet
  facet normal 0.526535 0.775082 -0.349297
    outer loop
       vertex -0.15402 0.0355617 1.00024
       vertex -0.153963 0.0353062 0.999759
       vertex -0.154156 0.0355955 1.00011
    endloop
  endfacet
  facet normal 0.594393 0.737259 -0.321164
    outer loop
       vertex -0.154012 0.0355596 1.00025
       vertex -0.153963 0.0353062 0.999759
       vertex -0.15402 0.0355617 1.00024
    endloop
  endfacet
  facet normal 0.358981 0.843526 -0.399495
    outer loop
       vertex -0.154008 0.0355579 1.00025
       vertex -0.153963 0.0353062 0.999759
       vertex -0.154012 0.0355596 1.00025
    endloop
  endfacet
  facet normal 0.544146 0.765812 -0.34269
    outer loop
       vertex -0.153991 0.0355503 1.00026
       vertex -0.153963 0.0353062 0.999759
       vertex -0.154008 0.0355579 1.00025
    endloop
  endfacet
  facet normal 0.543867 0.765969 -0.342782
    outer loop
       vertex -0.153861 0.0354938 1.00034
       vertex -0.153963 0.0353062 0.999759
       vertex -0.153991 0.0355503 1.00026
    endloop
  endfacet
  facet normal 0.545308 0.764975 -0.342714
    outer loop
       vertex -0.153825 0.0354726 1.00035
       vertex -0.153963 0.0353062 0.999759
       vertex -0.153861 0.0354938 1.00034
    endloop
  endfacet
  facet normal 0.527379 0.777709 -0.342113
    outer loop
       vertex -0.153753 0.035415 1.00033
       vertex -0.153963 0.0353062 0.999759
       vertex -0.153825 0.0354726 1.00035
    endloop
  endfacet
  facet normal 0.497176 0.800244 -0.3353
    outer loop
       vertex -0.153729 0.0353917 1.00031
       vertex -0.153963 0.0353062 0.999759
       vertex -0.153753 0.035415 1.00033
    endloop
  endfacet
  facet normal 0.558927 0.749987 -0.353724
    outer loop
       vertex -0.153708 0.0353666 1.00029
       vertex -0.153963 0.0353062 0.999759
       vertex -0.153729 0.0353917 1.00031
    endloop
  endfacet
  facet normal 0.53403 0.772188 -0.344293
    outer loop
       vertex -0.15364 0.035275 1.00019
       vertex -0.153963 0.0353062 0.999759
       vertex -0.153708 0.0353666 1.00029
    endloop
  endfacet
  facet normal 0.533018 0.773258 -0.343458
    outer loop
       vertex -0.153613 0.0352253 1.00012
       vertex -0.153963 0.0353062 0.999759
       vertex -0.15364 0.035275 1.00019
    endloop
  endfacet
  facet normal 0.538179 0.766761 -0.349917
    outer loop
       vertex -0.153577 0.0351544 1.00002
       vertex -0.153963 0.0353062 0.999759
       vertex -0.153613 0.0352253 1.00012
    endloop
  endfacet
  facet normal 0.530147 0.781205 -0.329641
    outer loop
       vertex -0.15357 0.0351315 0.999977
       vertex -0.153963 0.0353062 0.999759
       vertex -0.153577 0.0351544 1.00002
    endloop
  endfacet
  facet normal 0.534394 0.771635 -0.344966
    outer loop
       vertex -0.153566 0.0350885 0.999887
       vertex -0.153963 0.0353062 0.999759
       vertex -0.15357 0.0351315 0.999977
    endloop
  endfacet
  facet normal 0.534443 0.771214 -0.345833
    outer loop
       vertex -0.153577 0.035045 0.999773
       vertex -0.153963 0.0353062 0.999759
       vertex -0.153566 0.0350885 0.999887
    endloop
  endfacet
  facet normal 0.537262 0.776239 -0.329851
    outer loop
       vertex -0.153582 0.0350357 0.999743
       vertex -0.153963 0.0353062 0.999759
       vertex -0.153577 0.035045 0.999773
    endloop
  endfacet
  facet normal 0.531599 0.769665 -0.353579
    outer loop
       vertex -0.1536 0.0350238 0.99969
       vertex -0.153963 0.0353062 0.999759
       vertex -0.153582 0.0350357 0.999743
    endloop
  endfacet
  facet normal 0.535408 0.771918 -0.342754
    outer loop
       vertex -0.153625 0.0350065 0.999612
       vertex -0.153963 0.0353062 0.999759
       vertex -0.1536 0.0350238 0.99969
    endloop
  endfacet
endsolid Cap_RCA_RPDA1
