solid Cap_LAD_LAD3
  facet normal -0.620259 0.056559 -0.782355
    outer loop
       vertex -0.125848 0.0435874 0.99938
       vertex -0.126197 0.0440895 0.999693
       vertex -0.125736 0.0436953 0.999299
    endloop
  endfacet
  facet normal -0.626937 0.0489112 -0.777533
    outer loop
       vertex -0.125852 0.0435837 0.999383
       vertex -0.126197 0.0440895 0.999693
       vertex -0.125848 0.0435874 0.99938
    endloop
  endfacet
  facet normal -0.596325 0.0826288 -0.798479
    outer loop
       vertex -0.125868 0.0435744 0.999394
       vertex -0.126197 0.0440895 0.999693
       vertex -0.125852 0.0435837 0.999383
    endloop
  endfacet
  facet normal -0.618479 0.059796 -0.783523
    outer loop
       vertex -0.125997 0.0434981 0.99949
       vertex -0.126197 0.0440895 0.999693
       vertex -0.125868 0.0435744 0.999394
    endloop
  endfacet
  facet normal -0.617221 0.0605422 -0.784457
    outer loop
       vertex -0.126047 0.0434811 0.999528
       vertex -0.126197 0.0440895 0.999693
       vertex -0.125997 0.0434981 0.99949
    endloop
  endfacet
  facet normal -0.616976 0.0606526 -0.784641
    outer loop
       vertex -0.126132 0.0434573 0.999593
       vertex -0.126197 0.0440895 0.999693
       vertex -0.126047 0.0434811 0.999528
    endloop
  endfacet
  facet normal -0.619279 0.060135 -0.782865
    outer loop
       vertex -0.126239 0.0434488 0.999677
       vertex -0.126197 0.0440895 0.999693
       vertex -0.126132 0.0434573 0.999593
    endloop
  endfacet
  facet normal -0.618132 0.0600825 -0.783775
    outer loop
       vertex -0.126249 0.0434502 0.999685
       vertex -0.126197 0.0440895 0.999693
       vertex -0.126239 0.0434488 0.999677
    endloop
  endfacet
  facet normal -0.617901 0.060066 -0.783958
    outer loop
       vertex -0.126345 0.0434807 0.999763
       vertex -0.126197 0.0440895 0.999693
       vertex -0.126249 0.0434502 0.999685
    endloop
  endfacet
  facet normal -0.62061 0.0609792 -0.781745
    outer loop
       vertex -0.126456 0.043556 0.999857
       vertex -0.126197 0.0440895 0.999693
       vertex -0.126345 0.0434807 0.999763
    endloop
  endfacet
  facet normal -0.615874 0.0574495 -0.785747
    outer loop
       vertex -0.126512 0.0435851 0.999903
       vertex -0.126197 0.0440895 0.999693
       vertex -0.126456 0.043556 0.999857
    endloop
  endfacet
  facet normal -0.620958 0.0624548 -0.781352
    outer loop
       vertex -0.12654 0.0436068 0.999927
       vertex -0.126197 0.0440895 0.999693
       vertex -0.126512 0.0435851 0.999903
    endloop
  endfacet
  facet normal -0.620936 0.0624297 -0.781371
    outer loop
       vertex -0.126613 0.0436821 0.999991
       vertex -0.126197 0.0440895 0.999693
       vertex -0.12654 0.0436068 0.999927
    endloop
  endfacet
  facet normal -0.606638 0.0385597 -0.794043
    outer loop
       vertex -0.126673 0.0437462 1.00004
       vertex -0.126197 0.0440895 0.999693
       vertex -0.126613 0.0436821 0.999991
    endloop
  endfacet
  facet normal -0.62999 0.0943841 -0.770846
    outer loop
       vertex -0.12673 0.0438557 1.0001
       vertex -0.126197 0.0440895 0.999693
       vertex -0.126673 0.0437462 1.00004
    endloop
  endfacet
  facet normal -0.592897 -0.0476586 -0.803867
    outer loop
       vertex -0.126746 0.0438859 1.00011
       vertex -0.126197 0.0440895 0.999693
       vertex -0.12673 0.0438557 1.0001
    endloop
  endfacet
  facet normal -0.556922 -0.16531 -0.813947
    outer loop
       vertex -0.126749 0.043896 1.00011
       vertex -0.126197 0.0440895 0.999693
       vertex -0.126746 0.0438859 1.00011
    endloop
  endfacet
  facet normal -0.62152 0.0980885 -0.777233
    outer loop
       vertex -0.126787 0.0440513 1.00016
       vertex -0.126197 0.0440895 0.999693
       vertex -0.126749 0.043896 1.00011
    endloop
  endfacet
  facet normal -0.617203 -0.058747 -0.784608
    outer loop
       vertex -0.126792 0.0441038 1.00016
       vertex -0.126197 0.0440895 0.999693
       vertex -0.126787 0.0440513 1.00016
    endloop
  endfacet
  facet normal -0.612652 0.10207 -0.783734
    outer loop
       vertex -0.126784 0.0442287 1.00017
       vertex -0.126197 0.0440895 0.999693
       vertex -0.126792 0.0441038 1.00016
    endloop
  endfacet
  facet normal -0.633739 -0.0229308 -0.773207
    outer loop
       vertex -0.126774 0.04429 1.00016
       vertex -0.126197 0.0440895 0.999693
       vertex -0.126784 0.0442287 1.00017
    endloop
  endfacet
  facet normal -0.615935 0.0574089 -0.785702
    outer loop
       vertex -0.126739 0.0443924 1.00014
       vertex -0.126197 0.0440895 0.999693
       vertex -0.126774 0.04429 1.00016
    endloop
  endfacet
  facet normal -0.530007 0.248263 -0.810838
    outer loop
       vertex -0.126736 0.0443988 1.00014
       vertex -0.126197 0.0440895 0.999693
       vertex -0.126739 0.0443924 1.00014
    endloop
  endfacet
  facet normal -0.604402 0.0906731 -0.791503
    outer loop
       vertex -0.126684 0.0444833 1.00011
       vertex -0.126197 0.0440895 0.999693
       vertex -0.126736 0.0443988 1.00014
    endloop
  endfacet
  facet normal -0.683693 -0.0770754 -0.725688
    outer loop
       vertex -0.126665 0.0445027 1.00009
       vertex -0.126197 0.0440895 0.999693
       vertex -0.126684 0.0444833 1.00011
    endloop
  endfacet
  facet normal -0.6231 0.0445786 -0.780871
    outer loop
       vertex -0.126625 0.0445358 1.00006
       vertex -0.126197 0.0440895 0.999693
       vertex -0.126665 0.0445027 1.00009
    endloop
  endfacet
  facet normal -0.573712 0.116496 -0.81073
    outer loop
       vertex -0.12656 0.0445777 1.00002
       vertex -0.126197 0.0440895 0.999693
       vertex -0.126625 0.0445358 1.00006
    endloop
  endfacet
  facet normal -0.635079 0.0443686 -0.771172
    outer loop
       vertex -0.126487 0.0446137 0.999962
       vertex -0.126197 0.0440895 0.999693
       vertex -0.12656 0.0445777 1.00002
    endloop
  endfacet
  facet normal -0.617978 0.0603474 -0.783876
    outer loop
       vertex -0.126382 0.044663 0.999883
       vertex -0.126197 0.0440895 0.999693
       vertex -0.126487 0.0446137 0.999962
    endloop
  endfacet
  facet normal -0.619005 0.0597625 -0.78311
    outer loop
       vertex -0.126258 0.0446893 0.999787
       vertex -0.126197 0.0440895 0.999693
       vertex -0.126382 0.044663 0.999883
    endloop
  endfacet
  facet normal -0.6141 0.060852 -0.786879
    outer loop
       vertex -0.126211 0.044698 0.999751
       vertex -0.126197 0.0440895 0.999693
       vertex -0.126258 0.0446893 0.999787
    endloop
  endfacet
  facet normal -0.618402 0.0604344 -0.783535
    outer loop
       vertex -0.126099 0.0446903 0.999662
       vertex -0.126197 0.0440895 0.999693
       vertex -0.126211 0.044698 0.999751
    endloop
  endfacet
  facet normal -0.619455 0.0606499 -0.782686
    outer loop
       vertex -0.126001 0.044672 0.999583
       vertex -0.126197 0.0440895 0.999693
       vertex -0.126099 0.0446903 0.999662
    endloop
  endfacet
  facet normal -0.615628 0.0587663 -0.785843
    outer loop
       vertex -0.125924 0.0446363 0.99952
       vertex -0.126197 0.0440895 0.999693
       vertex -0.126001 0.044672 0.999583
    endloop
  endfacet
  facet normal -0.620212 0.0622838 -0.781958
    outer loop
       vertex -0.125811 0.0445685 0.999425
       vertex -0.126197 0.0440895 0.999693
       vertex -0.125924 0.0446363 0.99952
    endloop
  endfacet
  facet normal -0.614692 0.0551035 -0.78684
    outer loop
       vertex -0.125752 0.0444989 0.999374
       vertex -0.126197 0.0440895 0.999693
       vertex -0.125811 0.0445685 0.999425
    endloop
  endfacet
  facet normal -0.621788 0.0679668 -0.780231
    outer loop
       vertex -0.125689 0.0444208 0.999317
       vertex -0.126197 0.0440895 0.999693
       vertex -0.125752 0.0444989 0.999374
    endloop
  endfacet
  facet normal -0.617974 0.057756 -0.784074
    outer loop
       vertex -0.125645 0.0443075 0.999274
       vertex -0.126197 0.0440895 0.999693
       vertex -0.125689 0.0444208 0.999317
    endloop
  endfacet
  facet normal -0.618337 0.0594716 -0.78366
    outer loop
       vertex -0.125621 0.0442409 0.99925
       vertex -0.126197 0.0440895 0.999693
       vertex -0.125645 0.0443075 0.999274
    endloop
  endfacet
  facet normal -0.618367 0.0597086 -0.783618
    outer loop
       vertex -0.125606 0.044055 0.999224
       vertex -0.126197 0.0440895 0.999693
       vertex -0.125621 0.0442409 0.99925
    endloop
  endfacet
  facet normal -0.621617 0 -0.783321
    outer loop
       vertex -0.125606 0.0440516 0.999224
       vertex -0.126197 0.0440895 0.999693
       vertex -0.125606 0.044055 0.999224
    endloop
  endfacet
  facet normal -0.618889 0.0497341 -0.783902
    outer loop
       vertex -0.12561 0.0440336 0.999226
       vertex -0.126197 0.0440895 0.999693
       vertex -0.125606 0.0440516 0.999224
    endloop
  endfacet
  facet normal -0.617713 0.0623194 -0.783931
    outer loop
       vertex -0.125647 0.0438557 0.999241
       vertex -0.126197 0.0440895 0.999693
       vertex -0.12561 0.0440336 0.999226
    endloop
  endfacet
  facet normal -0.618527 0.0595759 -0.783502
    outer loop
       vertex -0.125657 0.0438306 0.999247
       vertex -0.126197 0.0440895 0.999693
       vertex -0.125647 0.0438557 0.999241
    endloop
  endfacet
  facet normal -0.620432 0.0537341 -0.782417
    outer loop
       vertex -0.125685 0.0437837 0.999266
       vertex -0.126197 0.0440895 0.999693
       vertex -0.125657 0.0438306 0.999247
    endloop
  endfacet
  facet normal -0.616824 0.0628107 -0.784591
    outer loop
       vertex -0.125736 0.0436953 0.999299
       vertex -0.126197 0.0440895 0.999693
       vertex -0.125685 0.0437837 0.999266
    endloop
  endfacet
endsolid Cap_LAD_LAD3
