solid Cap_RCA_RPLB2
  facet normal -0.261212 0.822988 0.504439
    outer loop
       vertex -0.184674 0.0280522 0.999523
       vertex -0.184375 0.0278486 1.00001
       vertex -0.184653 0.0280699 0.999505
    endloop
  endfacet
  facet normal -0.251464 0.828304 0.500677
    outer loop
       vertex -0.184774 0.0279596 0.999626
       vertex -0.184375 0.0278486 1.00001
       vertex -0.184674 0.0280522 0.999523
    endloop
  endfacet
  facet normal -0.252571 0.827425 0.501573
    outer loop
       vertex -0.184826 0.0278849 0.999723
       vertex -0.184375 0.0278486 1.00001
       vertex -0.184774 0.0279596 0.999626
    endloop
  endfacet
  facet normal -0.25216 0.827906 0.500987
    outer loop
       vertex -0.184853 0.027841 0.999782
       vertex -0.184375 0.0278486 1.00001
       vertex -0.184826 0.0278849 0.999723
    endloop
  endfacet
  facet normal -0.252401 0.827517 0.501507
    outer loop
       vertex -0.184864 0.0278055 0.999835
       vertex -0.184375 0.0278486 1.00001
       vertex -0.184853 0.027841 0.999782
    endloop
  endfacet
  facet normal -0.25218 0.828037 0.500759
    outer loop
       vertex -0.184881 0.027732 0.999948
       vertex -0.184375 0.0278486 1.00001
       vertex -0.184864 0.0278055 0.999835
    endloop
  endfacet
  facet normal -0.251831 0.816753 0.51913
    outer loop
       vertex -0.184872 0.027689 1.00002
       vertex -0.184375 0.0278486 1.00001
       vertex -0.184881 0.027732 0.999948
    endloop
  endfacet
  facet normal -0.259411 0.837916 0.480212
    outer loop
       vertex -0.184854 0.0276258 1.00014
       vertex -0.184375 0.0278486 1.00001
       vertex -0.184872 0.027689 1.00002
    endloop
  endfacet
  facet normal -0.236597 0.816215 0.527081
    outer loop
       vertex -0.184814 0.0275793 1.00023
       vertex -0.184375 0.0278486 1.00001
       vertex -0.184854 0.0276258 1.00014
    endloop
  endfacet
  facet normal -0.244972 0.820814 0.515997
    outer loop
       vertex -0.184792 0.0275544 1.00028
       vertex -0.184375 0.0278486 1.00001
       vertex -0.184814 0.0275793 1.00023
    endloop
  endfacet
  facet normal -0.275346 0.832123 0.481409
    outer loop
       vertex -0.184729 0.0275232 1.00037
       vertex -0.184375 0.0278486 1.00001
       vertex -0.184792 0.0275544 1.00028
    endloop
  endfacet
  facet normal -0.210498 0.819193 0.533492
    outer loop
       vertex -0.184695 0.0275059 1.00041
       vertex -0.184375 0.0278486 1.00001
       vertex -0.184729 0.0275232 1.00037
    endloop
  endfacet
  facet normal -0.326552 0.830845 0.450622
    outer loop
       vertex -0.184674 0.0275033 1.00043
       vertex -0.184375 0.0278486 1.00001
       vertex -0.184695 0.0275059 1.00041
    endloop
  endfacet
  facet normal -0.224695 0.825088 0.518403
    outer loop
       vertex -0.184576 0.027486 1.0005
       vertex -0.184375 0.0278486 1.00001
       vertex -0.184674 0.0275033 1.00043
    endloop
  endfacet
  facet normal -0.248645 0.824569 0.508194
    outer loop
       vertex -0.184442 0.0274956 1.00055
       vertex -0.184375 0.0278486 1.00001
       vertex -0.184576 0.027486 1.0005
    endloop
  endfacet
  facet normal -0.0840397 0.838796 0.53792
    outer loop
       vertex -0.18444 0.0274958 1.00055
       vertex -0.184375 0.0278486 1.00001
       vertex -0.184442 0.0274956 1.00055
    endloop
  endfacet
  facet normal -0.165967 0.834575 0.525299
    outer loop
       vertex -0.184439 0.027496 1.00055
       vertex -0.184375 0.0278486 1.00001
       vertex -0.18444 0.0274958 1.00055
    endloop
  endfacet
  facet normal -0.249563 0.824079 0.508538
    outer loop
       vertex -0.18427 0.027541 1.00056
       vertex -0.184375 0.0278486 1.00001
       vertex -0.184439 0.027496 1.00055
    endloop
  endfacet
  facet normal -0.312552 0.80238 0.508427
    outer loop
       vertex -0.184241 0.0275523 1.00056
       vertex -0.184375 0.0278486 1.00001
       vertex -0.18427 0.027541 1.00056
    endloop
  endfacet
  facet normal -0.241122 0.828648 0.505175
    outer loop
       vertex -0.184185 0.0275808 1.00054
       vertex -0.184375 0.0278486 1.00001
       vertex -0.184241 0.0275523 1.00056
    endloop
  endfacet
  facet normal -0.230489 0.832729 0.503425
    outer loop
       vertex -0.184111 0.0276194 1.00051
       vertex -0.184375 0.0278486 1.00001
       vertex -0.184185 0.0275808 1.00054
    endloop
  endfacet
  facet normal -0.261638 0.817586 0.512931
    outer loop
       vertex -0.184028 0.0276836 1.00045
       vertex -0.184375 0.0278486 1.00001
       vertex -0.184111 0.0276194 1.00051
    endloop
  endfacet
  facet normal -0.262386 0.817092 0.513336
    outer loop
       vertex -0.184008 0.0277026 1.00043
       vertex -0.184375 0.0278486 1.00001
       vertex -0.184028 0.0276836 1.00045
    endloop
  endfacet
  facet normal -0.240488 0.832278 0.499479
    outer loop
       vertex -0.183945 0.0277808 1.00033
       vertex -0.184375 0.0278486 1.00001
       vertex -0.184008 0.0277026 1.00043
    endloop
  endfacet
  facet normal -0.249857 0.82302 0.510107
    outer loop
       vertex -0.183891 0.0278654 1.00022
       vertex -0.184375 0.0278486 1.00001
       vertex -0.183945 0.0277808 1.00033
    endloop
  endfacet
  facet normal -0.113965 0.976184 0.184599
    outer loop
       vertex -0.18389 0.0278674 1.00021
       vertex -0.184375 0.0278486 1.00001
       vertex -0.183891 0.0278654 1.00022
    endloop
  endfacet
  facet normal -0.246306 0.817623 0.520409
    outer loop
       vertex -0.183869 0.0279501 1.00009
       vertex -0.184375 0.0278486 1.00001
       vertex -0.18389 0.0278674 1.00021
    endloop
  endfacet
  facet normal -0.245477 0.833414 0.495138
    outer loop
       vertex -0.18387 0.0279914 1.00002
       vertex -0.184375 0.0278486 1.00001
       vertex -0.183869 0.0279501 1.00009
    endloop
  endfacet
  facet normal -0.243642 0.826002 0.50829
    outer loop
       vertex -0.183874 0.0280333 0.99995
       vertex -0.184375 0.0278486 1.00001
       vertex -0.18387 0.0279914 1.00002
    endloop
  endfacet
  facet normal -0.246059 0.83003 0.500505
    outer loop
       vertex -0.183887 0.028059 0.999901
       vertex -0.184375 0.0278486 1.00001
       vertex -0.183874 0.0280333 0.99995
    endloop
  endfacet
  facet normal -0.245062 0.82892 0.502828
    outer loop
       vertex -0.183916 0.028102 0.999816
       vertex -0.184375 0.0278486 1.00001
       vertex -0.183887 0.028059 0.999901
    endloop
  endfacet
  facet normal -0.246531 0.829851 0.500569
    outer loop
       vertex -0.183951 0.0281314 0.99975
       vertex -0.184375 0.0278486 1.00001
       vertex -0.183916 0.028102 0.999816
    endloop
  endfacet
  facet normal -0.24548 0.829414 0.501808
    outer loop
       vertex -0.184041 0.0281822 0.999622
       vertex -0.184375 0.0278486 1.00001
       vertex -0.183951 0.0281314 0.99975
    endloop
  endfacet
  facet normal -0.241949 0.828885 0.504392
    outer loop
       vertex -0.184052 0.0281869 0.999609
       vertex -0.184375 0.0278486 1.00001
       vertex -0.184041 0.0281822 0.999622
    endloop
  endfacet
  facet normal -0.244098 0.829163 0.502896
    outer loop
       vertex -0.18412 0.0281972 0.999559
       vertex -0.184375 0.0278486 1.00001
       vertex -0.184052 0.0281869 0.999609
    endloop
  endfacet
  facet normal -0.247913 0.829282 0.50083
    outer loop
       vertex -0.184193 0.028208 0.999505
       vertex -0.184375 0.0278486 1.00001
       vertex -0.18412 0.0281972 0.999559
    endloop
  endfacet
  facet normal -0.249203 0.829208 0.500313
    outer loop
       vertex -0.184205 0.028208 0.999499
       vertex -0.184375 0.0278486 1.00001
       vertex -0.184193 0.028208 0.999505
    endloop
  endfacet
  facet normal -0.248211 0.829276 0.500691
    outer loop
       vertex -0.184354 0.0281948 0.999447
       vertex -0.184375 0.0278486 1.00001
       vertex -0.184205 0.028208 0.999499
    endloop
  endfacet
  facet normal -0.251687 0.828569 0.500127
    outer loop
       vertex -0.184387 0.0281878 0.999442
       vertex -0.184375 0.0278486 1.00001
       vertex -0.184354 0.0281948 0.999447
    endloop
  endfacet
  facet normal -0.249542 0.829066 0.500378
    outer loop
       vertex -0.184505 0.0281511 0.999444
       vertex -0.184375 0.0278486 1.00001
       vertex -0.184387 0.0281878 0.999442
    endloop
  endfacet
  facet normal -0.250797 0.828648 0.500443
    outer loop
       vertex -0.184621 0.0280882 0.99949
       vertex -0.184375 0.0278486 1.00001
       vertex -0.184505 0.0281511 0.999444
    endloop
  endfacet
  facet normal -0.24232 0.832507 0.49821
    outer loop
       vertex -0.184653 0.0280699 0.999505
       vertex -0.184375 0.0278486 1.00001
       vertex -0.184621 0.0280882 0.99949
    endloop
  endfacet
endsolid Cap_RCA_RPLB2
