solid ascii
 facet normal 0.534686 0.771716 -0.344333
  outer loop
   vertex -153.684 35.0038 999.514
   vertex -153.963 35.3062 999.759
   vertex -153.625 35.0065 999.612
  endloop
 endfacet
 facet normal 0.534732 0.771711 -0.344274
  outer loop
   vertex -153.717 35.0031 999.461
   vertex -153.963 35.3062 999.759
   vertex -153.684 35.0038 999.514
  endloop
 endfacet
 facet normal 0.534698 0.771718 -0.34431
  outer loop
   vertex -153.729 35.0045 999.446
   vertex -153.963 35.3062 999.759
   vertex -153.717 35.0031 999.461
  endloop
 endfacet
 facet normal 0.534761 0.771703 -0.344247
  outer loop
   vertex -153.78 35.016 999.393
   vertex -153.963 35.3062 999.759
   vertex -153.729 35.0045 999.446
  endloop
 endfacet
 facet normal 0.534702 0.771723 -0.344293
  outer loop
   vertex -153.875 35.0361 999.291
   vertex -153.963 35.3062 999.759
   vertex -153.78 35.016 999.393
  endloop
 endfacet
 facet normal 0.534839 0.771656 -0.344228
  outer loop
   vertex -153.917 35.0543 999.266
   vertex -153.963 35.3062 999.759
   vertex -153.875 35.0361 999.291
  endloop
 endfacet
 facet normal 0.534653 0.771755 -0.344296
  outer loop
   vertex -154.014 35.0948 999.205
   vertex -153.963 35.3062 999.759
   vertex -153.917 35.0543 999.266
  endloop
 endfacet
 facet normal 0.534853 0.77163 -0.344267
  outer loop
   vertex -154.072 35.1298 999.194
   vertex -153.963 35.3062 999.759
   vertex -154.014 35.0948 999.205
  endloop
 endfacet
 facet normal 0.534592 0.771808 -0.344272
  outer loop
   vertex -154.144 35.1818 999.198
   vertex -153.963 35.3062 999.759
   vertex -154.072 35.1298 999.194
  endloop
 endfacet
 facet normal 0.534699 0.771727 -0.344289
  outer loop
   vertex -154.189 35.2191 999.213
   vertex -153.963 35.3062 999.759
   vertex -154.144 35.1818 999.198
  endloop
 endfacet
 facet normal 0.534724 0.771707 -0.344296
  outer loop
   vertex -154.229 35.264 999.251
   vertex -153.963 35.3062 999.759
   vertex -154.189 35.2191 999.213
  endloop
 endfacet
 facet normal 0.534809 0.771631 -0.344334
  outer loop
   vertex -154.293 35.3339 999.308
   vertex -153.963 35.3062 999.759
   vertex -154.229 35.264 999.251
  endloop
 endfacet
 facet normal 0.534751 0.771691 -0.344288
  outer loop
   vertex -154.338 35.4082 999.405
   vertex -153.963 35.3062 999.759
   vertex -154.293 35.3339 999.308
  endloop
 endfacet
 facet normal 0.534625 0.771859 -0.344106
  outer loop
   vertex -154.357 35.4525 999.475
   vertex -153.963 35.3062 999.759
   vertex -154.338 35.4082 999.405
  endloop
 endfacet
 facet normal 0.534759 0.771631 -0.344411
  outer loop
   vertex -154.368 35.5107 999.588
   vertex -153.963 35.3062 999.759
   vertex -154.357 35.4525 999.475
  endloop
 endfacet
 facet normal 0.534718 0.771786 -0.344127
  outer loop
   vertex -154.365 35.5315 999.639
   vertex -153.963 35.3062 999.759
   vertex -154.368 35.5107 999.588
  endloop
 endfacet
 facet normal 0.534727 0.771669 -0.344376
  outer loop
   vertex -154.356 35.5595 999.717
   vertex -153.963 35.3062 999.759
   vertex -154.365 35.5315 999.639
  endloop
 endfacet
 facet normal 0.534738 0.771702 -0.344283
  outer loop
   vertex -154.311 35.5875 999.849
   vertex -153.963 35.3062 999.759
   vertex -154.356 35.5595 999.717
  endloop
 endfacet
 facet normal 0.564306 0.782442 -0.263333
  outer loop
   vertex -154.311 35.5876 999.849
   vertex -153.963 35.3062 999.759
   vertex -154.311 35.5875 999.849
  endloop
 endfacet
 facet normal -0.059207 0.236828 -0.969746
  outer loop
   vertex -154.311 35.5876 999.849
   vertex -153.963 35.3062 999.759
   vertex -154.311 35.5876 999.849
  endloop
 endfacet
 facet normal 0.528299 0.768841 -0.360255
  outer loop
   vertex -154.311 35.5876 999.849
   vertex -153.963 35.3062 999.759
   vertex -154.311 35.5876 999.849
  endloop
 endfacet
 facet normal 0.534762 0.771705 -0.344241
  outer loop
   vertex -154.238 35.6055 1000
   vertex -153.963 35.3062 999.759
   vertex -154.311 35.5876 999.849
  endloop
 endfacet
 facet normal 0.53434 0.771756 -0.344781
  outer loop
   vertex -154.222 35.6043 1000.02
   vertex -153.963 35.3062 999.759
   vertex -154.238 35.6055 1000
  endloop
 endfacet
 facet normal 0.534776 0.771682 -0.34427
  outer loop
   vertex -154.156 35.5955 1000.11
   vertex -153.963 35.3062 999.759
   vertex -154.222 35.6043 1000.02
  endloop
 endfacet
 facet normal 0.534722 0.771699 -0.344314
  outer loop
   vertex -154.02 35.5617 1000.24
   vertex -153.963 35.3062 999.759
   vertex -154.156 35.5955 1000.11
  endloop
 endfacet
 facet normal 0.535526 0.771283 -0.343998
  outer loop
   vertex -154.012 35.5596 1000.25
   vertex -153.963 35.3062 999.759
   vertex -154.02 35.5617 1000.24
  endloop
 endfacet
 facet normal 0.533555 0.772321 -0.34473
  outer loop
   vertex -154.008 35.5579 1000.25
   vertex -153.963 35.3062 999.759
   vertex -154.012 35.5596 1000.25
  endloop
 endfacet
 facet normal 0.534748 0.771688 -0.344299
  outer loop
   vertex -153.991 35.5503 1000.26
   vertex -153.963 35.3062 999.759
   vertex -154.008 35.5579 1000.25
  endloop
 endfacet
 facet normal 0.534716 0.771706 -0.344309
  outer loop
   vertex -153.861 35.4938 1000.34
   vertex -153.963 35.3062 999.759
   vertex -153.991 35.5503 1000.26
  endloop
 endfacet
 facet normal 0.534689 0.771724 -0.34431
  outer loop
   vertex -153.825 35.4726 1000.35
   vertex -153.963 35.3062 999.759
   vertex -153.861 35.4938 1000.34
  endloop
 endfacet
 facet normal 0.534773 0.771665 -0.344313
  outer loop
   vertex -153.753 35.415 1000.33
   vertex -153.963 35.3062 999.759
   vertex -153.825 35.4726 1000.35
  endloop
 endfacet
 facet normal 0.534588 0.771811 -0.344273
  outer loop
   vertex -153.729 35.3917 1000.31
   vertex -153.963 35.3062 999.759
   vertex -153.753 35.415 1000.33
  endloop
 endfacet
 facet normal 0.534504 0.77188 -0.344248
  outer loop
   vertex -153.708 35.3666 1000.29
   vertex -153.963 35.3062 999.759
   vertex -153.729 35.3917 1000.31
  endloop
 endfacet
 facet normal 0.534776 0.771645 -0.344352
  outer loop
   vertex -153.64 35.275 1000.19
   vertex -153.963 35.3062 999.759
   vertex -153.708 35.3666 1000.29
  endloop
 endfacet
 facet normal 0.534666 0.771762 -0.344261
  outer loop
   vertex -153.613 35.2253 1000.12
   vertex -153.963 35.3062 999.759
   vertex -153.64 35.275 1000.19
  endloop
 endfacet
 facet normal 0.534728 0.771685 -0.344338
  outer loop
   vertex -153.577 35.1544 1000.02
   vertex -153.963 35.3062 999.759
   vertex -153.613 35.2253 1000.12
  endloop
 endfacet
 facet normal 0.5347 0.771736 -0.344266
  outer loop
   vertex -153.57 35.1315 999.977
   vertex -153.963 35.3062 999.759
   vertex -153.577 35.1544 1000.02
  endloop
 endfacet
 facet normal 0.534671 0.771802 -0.344162
  outer loop
   vertex -153.566 35.0885 999.887
   vertex -153.963 35.3062 999.759
   vertex -153.57 35.1315 999.977
  endloop
 endfacet
 facet normal 0.534685 0.771686 -0.344402
  outer loop
   vertex -153.577 35.045 999.773
   vertex -153.963 35.3062 999.759
   vertex -153.566 35.0885 999.887
  endloop
 endfacet
 facet normal 0.534774 0.771843 -0.343911
  outer loop
   vertex -153.582 35.0357 999.743
   vertex -153.963 35.3062 999.759
   vertex -153.577 35.045 999.773
  endloop
 endfacet
 facet normal 0.534675 0.771728 -0.344324
  outer loop
   vertex -153.6 35.0238 999.69
   vertex -153.963 35.3062 999.759
   vertex -153.582 35.0357 999.743
  endloop
 endfacet
 facet normal 0.534643 0.771709 -0.344416
  outer loop
   vertex -153.625 35.0065 999.612
   vertex -153.963 35.3062 999.759
   vertex -153.6 35.0238 999.69
  endloop
 endfacet
endsolid
